<?xml version="1.0" encoding="utf-8"?>
<!-- Generator: Adobe Illustrator 24.0.0, SVG Export Plug-In . SVG Version: 6.00 Build 0)  -->
<svg version="1.1" xmlns="http://www.w3.org/2000/svg" xmlns:xlink="http://www.w3.org/1999/xlink" x="0px" y="0px"
	 viewBox="0 0 500 500" style="enable-background:new 0 0 500 500;" xml:space="preserve">
<style type="text/css">
	.st0{display:none;}
	.st1{display:inline;fill:#FFFFFF;}
	.st2{opacity:0.5;fill:#F5F5F5;}
	.st3{fill:#F5F5F5;}
	.st4{fill:none;stroke:#D6D6D6;stroke-width:0.4657;stroke-linecap:round;stroke-linejoin:round;stroke-miterlimit:10;}
	.st5{fill:#FF92C9;}
	.st6{fill:#FDB6D6;}
	.st7{fill:#FFDEEF;}
	.st8{fill:none;stroke:#262626;stroke-linecap:round;stroke-linejoin:round;stroke-miterlimit:10;}
	.st9{fill:#FFFFFF;}
	.st10{fill:none;stroke:#FFFFFF;stroke-linecap:round;stroke-linejoin:round;stroke-miterlimit:10;}
	.st11{fill:#3897E9;}
	.st12{fill:#D6D6D6;}
	.st13{fill:#F7A99C;}
	.st14{fill:#FFC001;}
	.st15{fill:none;stroke:#3897E9;stroke-width:0.733;stroke-linecap:round;stroke-linejoin:round;stroke-miterlimit:10;}
	.st16{fill:none;stroke:#262626;stroke-width:0.4147;stroke-linecap:round;stroke-linejoin:round;stroke-miterlimit:10;}
	.st17{fill:#1775AF;}
	.st18{fill:#262626;}
	.st19{fill:none;stroke:#FFFFFF;stroke-width:0.4147;stroke-linecap:round;stroke-linejoin:round;stroke-miterlimit:10;}
	.st20{fill:#4450E4;}
	.st21{fill:#3748C4;}
	.st22{fill:#FF7769;}
	.st23{fill:none;stroke:#262626;stroke-width:0.733;stroke-linecap:round;stroke-linejoin:round;stroke-miterlimit:10;}
	.st24{fill:none;stroke:#262626;stroke-width:0.25;stroke-linecap:round;stroke-linejoin:round;stroke-miterlimit:10;}
	.st25{fill:none;stroke:#262626;stroke-width:0.274;stroke-linecap:round;stroke-linejoin:round;stroke-miterlimit:10;}
	.st26{fill:#FF7129;}
	.st27{opacity:0.2;fill:#DCF0FF;}
	.st28{opacity:0.5;fill:#FFFFFF;}
</style>
<g id="BACKGROUND" class="st0">
	<rect class="st1" width="500" height="500"/>
</g>
<g id="OBJECT">
	<ellipse class="st2" cx="250.39" cy="433.5" rx="221.32" ry="30.69"/>
	<g>
		<path class="st3" d="M210.57,378.4c0.04-3.15-0.08-7.52-0.83-12.65c-0.63-4.32-2.66-18.12-9.94-28.55
			c-11-15.77-23.47-8.74-36.25-25.04c-7.32-9.33-5.26-14.22-13.62-21.68c-7.39-6.6-15.32-9.03-23.78-10.42
			c-21.39-3.52-56.29-0.22-56.29-0.22c2.95,33.82,14.32,47.81,24.13,54.33c13.77,9.16,24.36,3.55,36.64,14.51
			c15.98,14.27,5.49,30.44,20.39,45.29c0,0,6.52,6.5,57.15,16.12l0,0L210.57,378.4z"/>
		<path class="st4" d="M208.16,410.09c0,0-39.11-66.56-54-79.6c-14.9-13.04-84.3-50.65-84.3-50.65"/>
		<line class="st4" x1="120.08" y1="308.22" x2="76.4" y2="310.67"/>
		<line class="st4" x1="129.11" y1="313.63" x2="132.01" y2="281.23"/>
		<line class="st4" x1="148.97" y1="326.46" x2="111.16" y2="340.43"/>
		<line class="st4" x1="164.96" y1="343.07" x2="169.83" y2="318.51"/>
		<line class="st4" x1="177.17" y1="360.47" x2="140.54" y2="367.16"/>
		<line class="st4" x1="186.72" y1="375.14" x2="200.5" y2="338.23"/>
		<line class="st4" x1="195.41" y1="389.01" x2="153.05" y2="395.25"/>
	</g>
	<g>
		<path class="st3" d="M187.32,383.61c-1.16-2.93-2.95-6.92-5.61-11.37c-2.24-3.75-9.38-15.73-20.1-22.59
			c-16.19-10.36-25.03,0.9-43.07-9.28c-10.33-5.82-10.29-11.13-20.88-14.83c-9.35-3.27-17.61-2.48-25.95-0.54
			c-21.11,4.92-52.1,21.31-52.1,21.31c15.65,30.13,31.5,38.71,43.06,40.99c16.22,3.2,23.87-6.03,39.4-0.59
			c20.22,7.08,16.71,26.03,36.15,34.06c0,0,8.51,3.51,58.97-6.94l0,0L187.32,383.61z"/>
		<path class="st4" d="M197.21,413.82c0,0-61.58-46.56-80.33-52.92c-18.75-6.36-97.25-14.59-97.25-14.59"/>
		<line class="st4" x1="76.88" y1="353.35" x2="37.45" y2="372.3"/>
		<line class="st4" x1="87.28" y1="354.89" x2="77.58" y2="323.85"/>
		<line class="st4" x1="110.54" y1="359.16" x2="80.95" y2="386.52"/>
		<line class="st4" x1="131.67" y1="368.39" x2="126.78" y2="343.84"/>
		<line class="st4" x1="149.6" y1="379.81" x2="118.31" y2="399.99"/>
		<line class="st4" x1="164.03" y1="389.71" x2="162.66" y2="350.34"/>
		<line class="st4" x1="177.37" y1="399.21" x2="140.61" y2="421.17"/>
	</g>
	<polygon class="st5" points="329.8,414.32 196.46,414.32 209.3,326.15 316.96,326.15 	"/>
	<path class="st6" d="M428.92,341.7H97.35c-8.42,0-15.25-6.83-15.25-15.25V117.56c0-8.42,6.83-15.25,15.25-15.25h331.57
		c8.42,0,15.25,6.83,15.25,15.25v208.88C444.17,334.87,437.34,341.7,428.92,341.7z"/>
	<path class="st7" d="M420.13,316.58h-314c-8.42,0-15.25-6.83-15.25-15.25V124.77c0-8.42,6.83-15.25,15.25-15.25h314
		c8.42,0,15.25,6.83,15.25,15.25v176.56C435.38,309.75,428.55,316.58,420.13,316.58z"/>
	<path class="st6" d="M358.06,420.74H168.2v-9.17c0-7.09,5.75-12.84,12.84-12.84h164.18c7.09,0,12.84,5.75,12.84,12.84V420.74z"/>
	<line class="st8" x1="102.11" y1="316.58" x2="417.78" y2="316.58"/>
	<path class="st8" d="M176.56,416.16v-4.82c0-2.91,2.36-5.27,5.27-5.27h142.39"/>
	<line class="st8" x1="309.09" y1="348.74" x2="314.14" y2="387.27"/>
	<circle class="st9" cx="259.95" cy="329.92" r="7.39"/>
	<path class="st10" d="M365.04,123.57h39.21c7.47,0,13.53,6.06,13.53,13.53v81.47"/>
	<g>
		<path class="st11" d="M394.97,149.38c2.26-5.45,4.5-9.66,6.72-12.64c2.21-2.98,5.1-5.36,8.65-7.13c2.08-1.09,4.24-1.86,6.5-2.34
			c2.25-0.47,4.4-1.07,6.43-1.79c2.03-0.72,3.9-1.71,5.61-2.95c1.71-1.24,3.12-3.2,4.23-5.88c1.88-4.52,1.95-8.21,0.2-11.04
			c-1.75-2.84-4.33-4.97-7.74-6.39c-4.9-2.04-8.83-2.07-11.81-0.12c-2.98,1.96-5.66,5.15-8.04,9.57l-17.87-7.43
			c1.88-4.52,4.33-8.33,7.34-11.41c3.01-3.08,6.42-5.35,10.22-6.8c3.8-1.45,7.9-2.08,12.31-1.87c4.41,0.21,8.92,1.27,13.54,3.19
			c9.97,4.15,17,9.45,21.09,15.91c4.08,6.46,4.22,14.27,0.42,23.41c-1.23,2.96-2.6,5.42-4.13,7.38c-1.52,1.97-3.26,3.6-5.21,4.9
			c-1.95,1.3-4.13,2.37-6.53,3.21c-2.41,0.84-5.07,1.63-7.97,2.37c-2.69,0.73-4.93,1.5-6.73,2.32c-1.8,0.82-3.34,1.84-4.6,3.04
			c-1.26,1.21-2.32,2.58-3.18,4.12c-0.86,1.54-1.71,3.33-2.55,5.36L394.97,149.38z M383.3,175.89l7.54-18.15l18.7,7.77L402,183.66
			L383.3,175.89z"/>
	</g>
	<path class="st3" d="M285.99,176.62V161.8c0-4.86-3.94-8.8-8.8-8.8h-86.03c-4.86,0-8.8,3.94-8.8,8.8v14.82v98.73
		c0,4.86,3.94,8.8,8.8,8.8h137.57c4.86,0,8.8-3.94,8.8-8.8v-89.93c0-4.86-3.94-8.8-8.8-8.8H285.99z"/>
	<polygon class="st12" points="277.28,197.32 259.95,214.65 242.62,197.32 232.16,207.78 249.49,225.11 232.16,242.44 242.62,252.9 
		259.95,235.57 277.28,252.9 287.74,242.44 270.41,225.11 287.74,207.78 	"/>
	<g>
		<g>
			<polygon class="st13" points="72.16,419.89 72.16,408.48 51.14,408.48 51.14,439.86 98.59,440.62 98.59,434.91 			"/>
			<path class="st14" d="M100.27,440.62v-2.71c0-2.77-1.52-5.31-3.95-6.62l-20.01-10.8c-6,1.64-10.63,1.41-13.8,0.87
				c-5.26-0.89-10.29-3.28-11.98-1.28c-0.48,0.57-0.54,1.32-0.52,1.84v16.59c0,1.16,0.94,2.11,2.11,2.11H100.27z"/>
			<line class="st15" x1="100.27" y1="438.81" x2="50" y2="438.81"/>
			<line class="st15" x1="89.19" y1="427.67" x2="86.38" y2="431.39"/>
			<line class="st15" x1="87.13" y1="426.51" x2="84.32" y2="430.23"/>
			<line class="st15" x1="84.98" y1="425.43" x2="82.16" y2="429.15"/>
			<path class="st15" d="M81.8,423.46c-3.41,1.3-9.04,2.97-16.14,2.93c-6.85-0.04-12.3-1.65-15.66-2.93"/>
		</g>
		<g>
			<polygon class="st13" points="132.06,419.89 132.06,408.48 111.05,408.48 111.05,439.86 158.5,440.62 158.5,434.91 			"/>
			<path class="st14" d="M160.18,440.62v-2.71c0-2.77-1.52-5.31-3.95-6.62l-20.01-10.8c-6,1.64-10.63,1.41-13.8,0.87
				c-5.26-0.89-10.29-3.28-11.98-1.28c-0.48,0.57-0.54,1.32-0.52,1.84v16.59c0,1.16,0.94,2.11,2.11,2.11H160.18z"/>
			<line class="st15" x1="160.18" y1="438.81" x2="109.91" y2="438.81"/>
			<line class="st15" x1="149.1" y1="427.67" x2="146.28" y2="431.39"/>
			<line class="st15" x1="147.04" y1="426.51" x2="144.22" y2="430.23"/>
			<line class="st15" x1="144.88" y1="425.43" x2="142.07" y2="429.15"/>
			<path class="st15" d="M141.71,423.46c-3.41,1.3-9.04,2.97-16.14,2.93c-6.85-0.04-12.3-1.65-15.66-2.93"/>
		</g>
		<path class="st11" d="M119.99,257.38c0,0,17.31,54.96,19.97,62.57c2.66,7.61,5.13,18.26,4.56,27.58
			c-0.57,9.32-9.51,66.75-9.51,66.75h-26.05c0,0-1.84-60.67-2.73-65.42c-0.89-4.75-8.49-31.65-8.49-31.65s-2.47,31.46-4.56,39.82
			c-2.09,8.37-18.83,58.19-18.83,58.19H50l10.27-157.85H119.99z"/>
		<g>
			<path class="st13" d="M159.7,223.88c0,0,8.26-7.01,10.35-11.6c1.79-3.92,4.29-10.82,4.98-12.73c0.1-0.29,0.4-0.45,0.7-0.38
				l0.5,0.12c1.53,0.36,2.48,1.9,2.11,3.43l-0.83,3.44l8.73-5.73c0.75-0.49,1.76-0.25,2.2,0.53c0.39,0.69,0.2,1.56-0.43,2.02
				l-5.76,4.2l9.57-4.49c0.74-0.35,1.62-0.07,2.03,0.64l0.01,0.02c0.43,0.75,0.17,1.71-0.59,2.14l0.11-0.03
				c0.83-0.24,1.71,0.16,2.07,0.95c0.42,0.91-0.01,1.98-0.93,2.36l-0.61,0.25c0.79-0.25,1.63,0.25,1.79,1.06h0
				c0.24,1.19-0.34,2.39-1.41,2.95c-2.57,1.34-4.25,1.69-6.69,3.52c-1.94,1.45-1.26,2.37-3.32,5.02c-2.52,3.22-4.66,3.31-8.99,6.5
				c-1.65,1.21-3.92,3.1-6.32,5.9L159.7,223.88z"/>
			<path class="st16" d="M188.59,201.31c0,0,0.44,0.89-0.39,1.52c-0.83,0.63-7.34,5.45-7.34,5.45"/>
			<line class="st16" x1="193.28" y1="205.5" x2="184.32" y2="209.66"/>
			<line class="st16" x1="194.2" y1="208.97" x2="185.2" y2="213.11"/>
			<path class="st16" d="M176.86,199.53c0,0,1.57,1,1.53,2.1c-0.04,1.1-1.63,8.2-1.63,8.2"/>
		</g>
		<path class="st17" d="M108.96,414.28c0,0-2.36-62.2-2.54-63.81c-0.18-1.61-9.05-34.53-9.05-34.53l1.57-14.55
			c0,0,17.89,44.03,17.89,46.93c0,2.9,1.99,65.97,1.99,65.97H108.96z"/>
		<line class="st16" x1="94.19" y1="353.23" x2="100.54" y2="284.49"/>
		<polygon class="st18" points="136.01,409 108.75,409 108.96,414.28 135.01,414.28 		"/>
		<polygon class="st18" points="75.92,410.51 50.31,410.51 50,415.23 74.34,415.23 		"/>
		<path class="st19" d="M137.6,325.39c3.45,10.86,4,22.62,1.57,33.75"/>
		<path class="st20" d="M166.57,216.49c0,0-4.41,3.4-9.44,4.28c-5.89,1.03-11-2.45-12.37-3.39c-3.73-2.55-5.11-5.57-7.58-9.11
			c-7.31-10.47-11.86-16.97-18.22-20.66c-3.29-1.9-8.78-4.05-17.45-3.39c-1.94-0.7-5.04-0.14-7.12-0.14c-1.73,0-3.45,0-5.18,0
			c-3.4,0.41-28.46,3.32-32.72-0.59c-1.68-1.54-1.71-3.06-1.71-3.06c-0.02-1.26,0.77-2.56,2.85-4.14c5.07-3.86,14.38-6.75,17.5-7.67
			l-1.9-14.2c0,0,0,0-4.18,0s-19.02,2.47-27,5.26c-11.2,3.91-17.2,6.77-20.16,13.26c-3.71,8.13,0.24,16.87,1.27,19.14
			c5.14,11.37,16.54,15.98,23.43,18.76c6.07,2.45,11.48,3.44,15.24,3.87l-3.23,51.73l59.46,3.23h8.93
			c0.68-7.9-2.74-32.46-2.29-40.48c7.59,10.56,20.17,15.9,32.1,13.61c13.21-2.54,19.86-13.32,20.94-15.13
			C173.12,218.55,166.57,216.49,166.57,216.49z"/>
		<path class="st9" d="M92.7,212.74h-0.57v-24.69h3.75v21.52C95.87,211.32,94.45,212.74,92.7,212.74z"/>
		<path class="st21" d="M127.07,266.93c-2.05,0.38-30.19,5.1-50.08-15.9c-16.78-17.72-14.8-40.14-14.45-43.45
			c-1.04,15.55-2.09,31.1-3.13,46.66h-0.06l-0.76,12.19l9.32,0.51l-0.01-0.07c13.9,1.1,28.25,1.92,43.01,2.4
			c5.41,0.18,10.76,0.31,16.06,0.39C127.01,268.75,127.04,267.84,127.07,266.93z"/>
		<g>
			<path class="st18" d="M111.31,165.39c1.02-5.23,0.86-9.32,0.56-11.93c-0.22-1.99-0.57-3.49-1.63-4.92
				c-0.22-0.3-1.98-2.61-4.99-3.21c-3.6-0.72-4.51,1.89-9.63,2.53c-4.42,0.55-5.29-1.21-8.26,0.05c-3.24,1.38-4.85,4.59-5.33,5.56
				c-0.21,0.43-1.27,2.6-1.38,5.66c-0.08,2.42,0.47,4.24,0.69,4.98c0.92,3.13,2,7.89,3.33,15.51c0.69-0.03,1.38-0.05,2.07-0.08
				C94.94,174.82,103.12,170.11,111.31,165.39z"/>
			<path class="st13" d="M93.8,191.12L93.8,191.12c-3.87,0.01-7.01-3.11-7.03-6.98l-0.06-15.07l14.01-0.05l0.06,15.07
				C100.79,187.95,97.67,191.1,93.8,191.12z"/>
			<path class="st22" d="M100.76,179.87l-9.12-4.69c0.09,0.79,0.61,4.49,3.86,7.04c2.08,1.63,4.26,2,5.27,2.11L100.76,179.87z"/>
			<path class="st13" d="M86.37,164.4c-0.04-0.23-0.64-0.57-0.83-0.69c-0.31-0.2-0.65-0.36-1-0.47c-0.68-0.22-1.43-0.27-2.14-0.11
				c-1.4,0.32-2.63,1.49-2.87,2.93c-0.14,0.83,0.06,1.7,0.42,2.46c0.54,1.15,1.45,2.12,2.55,2.75c0.91,0.53,1.95,0.82,3,0.89
				c0.21,0.01,2.36-0.04,2.35-0.12C87.36,169.5,86.87,166.95,86.37,164.4z"/>
			<path class="st13" d="M84.45,164.55c0.17,1.12,1.15,7.05,6.5,11.25c0.98,0.77,7.53,5.9,13.52,3.4c7.7-3.22,6.86-15.86,6.8-16.54
				c-0.18-2.31-0.72-9.13-6.37-12.77c-4.61-2.97-9.6-1.88-10.31-1.71c-0.75,0.18-5.5,1.37-8.41,6.03
				C83.55,158.43,84.18,162.71,84.45,164.55z"/>
			<path class="st18" d="M106.91,162.65c0.12,0.99,0.89,1.7,1.7,1.6c0.81-0.1,1.37-0.99,1.25-1.97c-0.12-0.99-0.88-1.7-1.7-1.6
				C107.34,160.78,106.78,161.67,106.91,162.65z"/>
			<path class="st18" d="M98.01,163.77c0.12,0.99,0.88,1.7,1.7,1.6c0.81-0.1,1.37-0.99,1.25-1.97c-0.12-0.99-0.89-1.7-1.7-1.6
				C98.45,161.9,97.89,162.78,98.01,163.77z"/>
			<path class="st23" d="M104.22,164.13l1.36,1.84c0.25,0.34,0.16,0.82-0.2,1.04l-1.25,0.76"/>
			<path class="st22" d="M95.03,168.42c0.14,1.11,1.15,1.89,2.26,1.75c1.11-0.14,1.89-1.15,1.75-2.26
				c-0.14-1.11-1.15-1.89-2.26-1.75C95.68,166.3,94.89,167.31,95.03,168.42z"/>
			<path class="st23" d="M85.43,169.46c0.01-0.22,0.03-1.73-1.18-2.81c-0.95-0.85-2.04-0.91-2.34-0.91"/>
			<path class="st23" d="M84.37,166.95c-0.07-0.01-0.88-0.12-1.44,0.49c-0.46,0.5-0.42,1.12-0.41,1.23"/>
			<path class="st18" d="M84.27,163.17c0,0,1,0.09,1.75,0.83c0.75,0.74,1.02,2.02,1.02,2.02c1.92-0.23,6.31-1.04,10.29-4.5
				c2.16-1.87,3.48-3.9,4.25-5.36c0.73,0.65,1.97,1.63,3.72,2.39c2.29,0.99,5.14,1.46,5.52,0.69c0.07-0.14-0.01-0.55-0.16-1.38
				c-0.06-0.3-0.12-0.74-0.26-1.16c-0.28-0.83-0.65-1.62-1.09-2.38c-0.88-1.51-2.05-2.85-3.43-3.93c-0.9-0.7-1.88-1.28-2.92-1.73
				c-3.32-1.41-7.93-1.41-11.9,0.7c0,0-4.43,2.36-6.38,6.99c-0.67,1.59-0.84,3.18-0.88,3.73c-0.08,1.09,0.04,1.8,0.2,2.35
				C84.09,162.75,84.2,163,84.27,163.17z"/>
			<path class="st22" d="M110.23,165.22c0.38-0.05,0.75,0.02,1.08,0.17c-0.04,1.08-0.14,2.4-0.38,3.8
				c-0.06,0.01-0.13,0.04-0.19,0.04c-1.11,0.14-2.12-0.65-2.26-1.75S109.12,165.36,110.23,165.22z"/>
			<path class="st24" d="M95.4,148.42c-0.66-0.26-1.62-0.61-2.81-0.95c-2.6-0.75-3.9-1.12-5.09-0.97c-3.47,0.45-5.46,5.01-6.29,6.93
				c-0.63,1.45-1.67,3.91-1.12,6.99c0.24,1.37,0.73,2.45,1.11,3.15"/>
			<path class="st24" d="M95.4,148.01c1.17-0.51,2.43-0.93,3.55-1.51c1.19-0.62,2.22-1.42,3.49-1.89c1.33-0.5,2.82-0.7,4.18-0.28
				c1.17,0.36,2.18,1.14,3,2.04c1.11,1.22,1.96,2.69,2.41,4.28c0.85,3.07,0.09,6.26-0.41,9.32"/>
			<path class="st9" d="M105.73,171.99c0,1-0.97,1.8-2.17,1.8c-1.2,0-2.17-0.81-2.17-1.8s0.97-1.8,2.17-1.8
				C104.76,170.19,105.73,171,105.73,171.99z"/>
		</g>
		<path class="st13" d="M73.57,156.85l4-2.44c0,0,0.82-3.52,1.93-4.27c1.11-0.75,7.02-3.04,7.02-3.04l0.86,0.8
			c0,0-4.62,4.22-5.58,6.09c-0.96,1.87-1.14,7.09-1.14,7.09l-4.52,5.84l-1.11,0.84L73.57,156.85z"/>
		<line class="st16" x1="62.55" y1="209.83" x2="60.45" y2="236.86"/>
		<line class="st16" x1="123.66" y1="212.04" x2="125.27" y2="241.86"/>
		<path class="st19" d="M31.29,169.46c-0.84,0.67-5.16,4.24-5.86,10.56c-0.76,6.88,3.38,11.6,4.03,12.31"/>
		<path class="st19" d="M134.02,231.16c1.11,1.24,5.44,5.74,12.7,6.72c6.89,0.93,12.03-1.9,13.51-2.79"/>
	</g>
	<g>
		<path class="st3" d="M322.94,254.84l9.27-4.96l13.76,2.52l6.88-7.34l16.28,4.36l9.06-12.38l16.17,9.91l-5.5-34.96l-21.34-14.94
			l-49.05,7.72c-1.84,0.29-3.09,2.01-2.8,3.85L322.94,254.84z"/>
		<path class="st12" d="M372.5,214.57l16.36-2.57l-21.34-14.94l2.47,15.69C370.18,213.94,371.3,214.76,372.5,214.57z"/>
		<path class="st25" d="M367.52,197.05l2.47,15.69c0.19,1.2,1.32,2.02,2.52,1.83l16.36-2.57"/>
		<path class="st3" d="M329.55,300.75c0.29,1.84,2.01,3.09,3.85,2.8l64.26-10.11c1.84-0.29,3.09-2.01,2.8-3.85l-6.1-38.73
			l-16.17-9.91l-9.06,12.38l-16.28-4.36l-6.88,7.34l-13.76-2.52l-9.27,4.96L329.55,300.75z"/>
		<path class="st25" d="M322.95,254.84l9.27-4.96l13.76,2.52l6.88-7.34l16.28,4.36l9.06-12.38l16.17,9.91l-5.5-34.96l-21.34-14.94
			l-49.05,7.72c-1.84,0.29-3.09,2.01-2.8,3.85L322.95,254.84z"/>
		<path class="st25" d="M329.56,300.75c0.29,1.84,2.01,3.09,3.85,2.8l64.26-10.11c1.84-0.29,3.09-2.01,2.8-3.85l-6.1-38.73
			l-16.17-9.91l-9.06,12.38l-16.28-4.36l-6.88,7.34l-13.76-2.52l-9.27,4.96L329.56,300.75z"/>
	</g>
	<polygon class="st26" points="74.36,146.1 72.74,147.64 58.39,134.69 62.52,130.75 	"/>
	<polygon class="st26" points="77.91,143.44 75.7,143.85 70.78,125.16 76.39,124.12 	"/>
	<polygon class="st26" points="70.26,149.62 70.08,151.86 50.75,151.71 51.21,146.02 	"/>
	<g>
		<path class="st26" d="M301.21,433.06L301.21,433.06c-4.85-4.77-4.92-12.56-0.15-17.41l56.69-57.69l17.56,17.26l-56.69,57.69
			C313.86,437.76,306.06,437.83,301.21,433.06z"/>
		
			<ellipse transform="matrix(1 -2.267696e-03 2.267696e-03 1 -0.7479 0.913)" class="st27" cx="402.24" cy="330.26" rx="49.79" ry="49.79"/>
		<path class="st28" d="M355.65,347.81c1.68,4.47,4.02,8.74,7.02,12.66l89.35-30.9c-0.07-4.83-0.84-9.65-2.3-14.3L355.65,347.81z"/>
		<path class="st28" d="M352.57,333.55c0.19,2.82,0.61,5.63,1.28,8.4l93.67-32.4c-1.17-2.55-2.56-5.03-4.18-7.4L352.57,333.55z"/>
		<path class="st26" d="M442.52,289.27c-22.63-22.24-59.02-21.93-81.26,0.71c-22.24,22.63-21.93,59.02,0.71,81.26
			c22.63,22.24,59.02,21.93,81.26-0.71C465.47,347.9,465.15,311.52,442.52,289.27z M369.07,364.01
			c-18.64-18.32-18.9-48.28-0.58-66.92c18.32-18.64,48.28-18.9,66.92-0.58c18.64,18.32,18.9,48.28,0.58,66.92
			C417.67,382.07,387.71,382.33,369.07,364.01z"/>
		<line class="st10" x1="361.73" y1="380.53" x2="316.9" y2="426.14"/>
		<path class="st10" d="M406.36,276.92c-14.12-1.42-28.77,3.45-39.22,13.06c-10.45,9.61-16.54,23.79-16.31,37.98"/>
	</g>
</g>
</svg>
